<?xml version="1.0" encoding="UTF-8"?>
<svg id="ultraqr-logo" xmlns="http://www.w3.org/2000/svg" version="1.1" viewBox="0 0 1920 1920">
  <!-- Generator: Adobe Illustrator 29.1.0, SVG Export Plug-In . SVG Version: 2.1.0 Build 142)  -->
  <defs>
    <style>
      .st0 {
        fill: #025486;
      }

      .st1 {
        fill: #d41232;
      }
    </style>
  </defs>
  <path id="qr" d="M553.9,679.9v270.7h270.7v-270.7h-270.7ZM863.3,679.9v77.3h38.7v-38.7h38.7v-38.7h-77.4ZM940.6,718.6v38.7h38.7v-38.7h-38.7ZM979.3,757.2v38.7h77.3v-116h-38.7v77.3h-38.7.1ZM979.3,795.9h-116v38.7h77.3v38.7h-38.7v38.7h38.7v38.7h38.7v-38.7h38.7v38.7h-38.7v38.7h-38.7v38.7h77.3v38.7h38.7v-193.4h-38.7v-38.7h-38.7v-38.7h.1ZM1018,1066.6h-38.7v38.7h-38.7v77.3h38.7v77.3h-77.3v-38.7h38.7v-38.7h-38.7v-77.3h-38.7v-38.7h38.7v38.7h38.7v-77.3h-77.3v-38.7h-116v38.7h-38.7v38.7h-38.7v-38.7h38.7v-38.7h-77.3v38.7h-38.7v116h38.7v-38.7h116v-38.7h38.7v-38.7h38.7v38.7h-38.7v38.7h38.7v38.7h-38.7v38.7h77.3v116h38.7v38.7h116v38.7h-116v-38.7h-38.7v77.3h38.7v38.7h-38.7v38.7h77.3v-38.7h38.7v38.7h154.7v-38.7h38.7v38.7h116v-38.7h-77.3v-38.7h-38.7v-38.7h-38.7v38.7h-77.3v38.7h-38.7v-38.7h38.7v-116h38.7v-38.7h-77.3v-38.7h38.7v-116h-38.7v-38.7h-.2ZM1134,1376v-38.7h-38.7v38.7h38.7ZM1211.3,1414.7h77.3v-38.7h-77.3v38.7ZM1288.7,1376h38.7v-154.7h-116v-38.7h-38.7v38.7h-38.7v77.3h38.7v-38.7h38.7v77.3h77.3v38.7h0ZM1172.6,1182.6v-38.7h-77.3v38.7h77.3ZM1211.3,1182.6h38.7v-116h38.7v38.7h38.7v38.7h38.7v-77.3h-38.7v-38.7h38.7v-38.7h-77.3v38.7h-38.7v-38.7h-38.7v38.7h-38.7v38.7h38.7v116h0ZM1172.6,1066.6h-38.7v38.7h38.7v-38.7ZM1327.3,1143.9h-38.7v38.7h38.7v-38.7ZM785.9,1143.9v-38.7h-38.7v38.7h38.7ZM747.2,1143.9h-116v38.7h116v-38.7ZM592.6,1143.9h-38.7v38.7h38.7v-38.7ZM592.6,1027.9v-38.7h-38.7v38.7h38.7ZM863.3,989.3h38.7v-77.3h-38.7v77.3ZM1095.3,679.9v270.7h270.7v-270.7h-270.7ZM592.6,718.6h193.4v193.4h-193.4v-193.4ZM1134,718.6h193.4v193.4h-193.4v-193.4ZM631.2,757.2v116h116v-116h-116ZM1172.6,757.2v116h116v-116h-116ZM1095.3,989.3v38.7h38.7v-38.7h-38.7ZM553.9,1221.3v270.7h270.7v-270.7h-270.7ZM592.6,1260h193.4v193.4h-193.4v-193.4ZM631.2,1298.6v116h116v-116h-116ZM1327.3,1414.7v38.7h38.7v-38.7h-38.7Z"/>
  <g id="unlock">
    <path id="power" class="st1" d="M711.3,842.5c-244.1,253.5-17.6,657,321.9,587.2,234.3-48.2,352.5-316.7,225.7-522.1-18.4-29.8-30-38-53.4-61-52.7-52-41.1-142.9,22-180.6,144.8-86.5,269.4,175.9,295.5,283.1,109.7,449.8-324.9,840.2-760.5,683.6-405.4-145.8-511.9-664.3-202.1-964.3,98.9-95.7,250.4,22.6,182.7,139.6-10.8,18.7-19.3,21.4-32,34.6h.2Z"/>
    <path id="key" class="st0" d="M961.9,455.6c3,4,9.3,7.2,13.7,9.7,27.9,15.7,70.5,31.8,94.9,49.5,17.1,12.4,17.7,32.7.8,45.5l-109.4,47.2,2.4,4.3,98.8,58.7c7.7,6.9,12.5,32.6,13.3,42.9,7,91.4-3.5,194.4-2.4,286.5-31.9,131-214.5,118.9-229.9-14.8-1.9-198.8,2.2-397.1,1.8-595.8l6.3-14.3c33-26.9,63.7-71.4,96.6-96.6,16.9-12.9,32.5-10.8,47.7,3,21.5,19.6,62.4,62.4,79.8,85.2,11.1,14.5,9.1,23.1-3,36.2l-111.3,52.8h-.1Z"/>
  </g>
</svg>